<svg xmlns="http://www.w3.org/2000/svg" viewBox="0 0 512 512" style="height: 512px; width: 512px;"><polygon points="437.02,437.02,256,512,74.98,437.02,0,256,74.98,74.98,256,0,437.02,74.98,512,256" fill="#000" fill-opacity="1"></polygon><g class="" transform="translate(26,-18)" style="touch-action: none;"><g transform="translate(51.2, 51.2) scale(0.8, 0.8) rotate(0, 256, 256)"><path d="M200.947 18.686C193.967 18.773 186.307 19.46 178.097 20.586C205.667 41.054 229.195 65.836 245.691 91.113C247.351 91.113 249.003 91.125 250.649 91.16C268.715 91.55 286.136 94.066 303.866 98.36C288.171 69.903 273.931 48.17 256.416 35.14C242.599 24.862 226.353 18.972 203.896 18.686C202.929 18.673 201.946 18.673 200.948 18.686Z" class="" fill="#ffffff" fill-opacity="1"></path><path d="M109.287 41.646C108.557 41.644 107.827 41.652 107.092 41.668C93.047 41.978 77.732 45.588 60.232 52.798C116.412 71.605 167.217 103.266 194.139 136.383C212.516 131.253 223.579 121.663 230.593 107.566C195.84 78.18 168.118 56.19 140.65 46.96C130.482 43.542 120.217 41.654 109.287 41.645Z" class="" fill="#fff" fill-opacity="1"></path><path d="M109.084 94.432C69.664 101.19 34.354 126.286 21.262 168.622L21.262 490.967L233.992 490.967C100.352 442.58 61.19 206.49 187.115 230.104C192.953 215.94 197.035 202.077 198.133 188.639L216.76 190.161C215.076 210.753 207.932 230.651 198.727 250.104C197.995 252.139 197.255 254.224 196.541 256.167C229.383 341.407 310.311 416.857 366.036 424.364C366.951 424.397 367.941 424.362 368.989 424.274C386.005 425.309 404.849 420.052 421.199 401.97L429.183 393.14L418.71 387.482C412.203 383.967 404.42 380.388 400.543 376.557C398.605 374.641 397.75 373.087 397.469 371.363C397.187 369.638 397.339 367.136 399.699 362.785L410.372 343.129L388.888 349.351C382.584 351.176 371.583 346.319 365.664 338.641C362.704 334.801 361.256 330.734 361.277 327.798C361.297 324.86 361.997 322.673 366.024 319.748L385.477 305.623L361.593 302.903C351.619 301.766 345.223 296.245 342.423 290.609C339.621 284.975 340.111 280.525 343.798 277.299L356.002 266.622L340.644 261.417C333.927 259.141 330.348 253.862 330.287 250.784C330.259 249.411 330.525 248.118 332.13 246.308C343.06 243.918 353.388 245.858 360.218 252.682C366.372 258.828 368.568 267.81 367.195 277.514C375.745 275.26 384.18 275.898 391.307 280.008C400.647 285.395 405.954 295.7 406.977 307.973C422.189 297.841 439.129 295.248 452.239 302.809C467.706 311.729 473.599 332.322 469.044 354.559C493.036 321.204 503.632 278.842 474.661 234.129C427.935 229.687 392.968 203.453 381.368 166.489C376.342 150.473 360.084 137.819 339.368 128.585L339.288 128.802C309.548 117.979 283.713 111.452 256.684 110.069L256.764 110.224C254.47 110.131 252.204 110.064 250.002 110.052C240.465 132.926 221.34 149.952 192.566 156.106L186.66 157.368L183.084 152.504C168.868 133.174 141.854 112.052 109.082 94.43Z" class="selected" fill="#59a308" fill-opacity="1"></path><path d="M265.299 159.692C293.226 159.619 310.173 171.309 307.389 204.142C271.545 207.532 255.456 187.459 244.315 161.51C251.822 160.355 258.853 159.71 265.298 159.693Z" class="" fill="#840909" fill-opacity="1"></path><path d="M313.706 226.055C317.414 226.125 320.846 227.049 323.72 228.867C322.21 229.969 320.822 231.147 319.56 232.41C314.314 237.65 311.473 244.532 311.604 251.152C311.787 260.474 316.874 268.336 324.284 273.712C321.144 281.815 321.832 291.167 325.691 298.932C329.504 306.6 336.231 313.205 344.993 317.33C343.548 320.696 342.618 324.192 342.593 327.66C342.531 336.067 345.973 343.702 350.866 350.05C357.658 358.86 367.728 365.986 378.892 367.96C378.709 370.14 378.688 372.293 379.025 374.367C380.075 380.811 383.54 386.027 387.405 389.847C390.815 393.217 394.595 395.739 398.203 397.84C391.858 402.632 385.789 404.896 379.585 405.63C373.07 397.693 369.875 386.546 370.175 374.176C358.408 380.353 345.965 381.332 336.055 375.616C321.387 367.156 316.662 346.58 322.868 325.286C311.532 328.056 300.738 326.206 293.681 319.154C284.806 310.289 284.146 295.528 290.587 281.204C286.911 280.589 283.624 279.038 281.062 276.479C272.254 267.681 275.289 250.389 287.838 237.853C295.681 230.018 305.384 225.896 313.708 226.053Z" class="" fill="#417505" fill-opacity="1"></path></g></g></svg>