<svg xmlns="http://www.w3.org/2000/svg" viewBox="0 0 512 512" style="height: 512px; width: 512px;"><polygon points="437.02,437.02,256,512,74.98,437.02,0,256,74.98,74.98,256,0,437.02,74.98,512,256" fill="#000" fill-opacity="1"></polygon><g class="" transform="translate(0,0)" style="touch-action: none;"><g transform="translate(25.6, 25.6) scale(0.9, 0.9) rotate(0, 256, 256)"><path d="M246.53 21.03C184.196 21.37 123.016 36.708 81.53 60.47L75.375 62.53C94.903 120.797 123.538 161.217 156.313 194.906L154.593 262.376L219.093 292.813C200.093 351.798 184.578 421.705 168.688 490.469L359.813 490.469C349.505 443.339 339.297 395.975 327.656 351.749C351.43 379.862 374.166 413.379 394.719 456.062L411.561 447.968C388.993 401.098 363.623 364.628 337.249 334.342L368.374 310.062L320.904 205.685L369.124 171.935C350.161 136.478 331.678 100.629 296.844 79.279C264.334 99.272 244.844 135.991 224.624 171.779L195.404 206.469C166.514 180.799 140.429 153.129 119.311 115.937C192.195 60.42 315.858 47.172 419.656 72.56C373.43 35.602 309.392 20.69 246.53 21.032Z" class="selected" fill="#c9c9c9" fill-opacity="1"></path></g></g></svg>