<svg xmlns="http://www.w3.org/2000/svg" viewBox="0 0 512 512" style="height: 146px; width: 146px;"><defs><filter id="shadow-1" height="300%" width="300%" x="-100%" y="-100%"><feFlood flood-color="rgba(40, 1, 6, 1)" result="flood"></feFlood><feComposite in="flood" in2="SourceGraphic" operator="atop" result="composite"></feComposite>0<feOffset dy="10" result="offset"></feOffset><feComposite in="SourceGraphic" in2="offset" operator="over"></feComposite></filter><filter id="shadow-3" height="300%" width="300%" x="-100%" y="-100%"><feFlood flood-color="rgba(74, 144, 226, 1)" result="flood"></feFlood><feComposite in="flood" in2="SourceGraphic" operator="atop" result="composite"></feComposite><feGaussianBlur in="composite" stdDeviation="8" result="blur"></feGaussianBlur><feOffset dx="0" dy="0" result="offset"></feOffset><feComposite in="SourceGraphic" in2="offset" operator="over"></feComposite></filter></defs><g class="" transform="translate(14,-11)" style="touch-action: none;"><g><path d="M208 151C180 151 147.622 168.102 117.008 188.512C86.393 208.922 58.168 233.106 41.638 249.637L35.27 256L41.637 262.363C58.167 278.893 86.393 303.079 117.007 323.488C147.623 343.898 180 361 208 361L211.73 361L214.363 358.363C223.007 349.72 230.15 339.743 235.853 328.893C215.383 327.815 198.937 318.783 188.086 305.763C176.512 291.872 171 273.874 171 256C171 238.125 176.512 220.127 188.086 206.238C198.936 193.218 215.383 184.185 235.854 183.108C230.15 172.258 223.007 162.28 214.364 153.638L211.728 151L208 151Z" class="selected" fill="#ffffff" fill-opacity="1" stroke="#4a90e2" stroke-opacity="1" stroke-width="2"></path><path d="M240 201C222.4 201 210.34 207.65 201.914 217.762C193.488 227.872 189 241.875 189 256C189 270.125 193.488 284.127 201.914 294.238C210.34 304.348 222.4 311 240 311L243.7 311C245.59 305.724 247.185 300.315 248.496 294.818C245.996 296.178 243.172 297 240 297C230.718 297 224.35 290.08 220.637 282.652C216.922 275.224 215 266.052 215 256C215 245.947 216.922 236.776 220.637 229.348C224.35 221.918 230.717 215 240 215C243.172 215 245.995 215.822 248.496 217.182C247.186 211.685 245.591 206.276 243.699 201L240 201Z" class="" fill="#2e6bb3" fill-opacity="1" filter="url(#shadow-3)"></path><path d="M416 208L416 240L320 240L320 272L416 272L416 304L464 256L416 208Z" class="" fill="#ffffff" fill-opacity="1" stroke="#c50b21" stroke-opacity="1" stroke-width="8"></path><path d="M248 224C243.582 224 240 231.163 240 240C240 248.837 243.582 256 248 256C252.418 256 256 248.837 256 240C256 231.163 252.418 224 248 224Z" class="" fill="#ffffff" fill-opacity="1" stroke="#000000" stroke-opacity="1" stroke-width="10"></path></g></g></svg>